<?xml version="1.0" standalone="no"?>
<!DOCTYPE svg PUBLIC "-//W3C//DTD SVG 20010904//EN"
 "http://www.w3.org/TR/2001/REC-SVG-20010904/DTD/svg10.dtd">
<svg version="1.0" xmlns="http://www.w3.org/2000/svg"
 width="512.000000pt" height="512.000000pt" viewBox="0 0 512.000000 512.000000"
 preserveAspectRatio="xMidYMid meet">
<metadata>
Created by potrace 1.11, written by Peter Selinger 2001-2013
</metadata>
<g transform="translate(0.000000,512.000000) scale(0.100000,-0.100000)"
fill="#000000" stroke="none">
<path d="M2265 4982 c-49 -5 -136 -32 -190 -59 -187 -94 -337 -318 -420 -626
-68 -250 -93 -294 -267 -468 -64 -64 -111 -104 -248 -212 -8 -7 -58 -41 -110
-76 -139 -94 -270 -202 -351 -289 -165 -178 -286 -419 -324 -647 -3 -16 -7
-41 -10 -55 -16 -88 -22 -312 -10 -370 3 -14 8 -41 11 -60 31 -176 161 -381
350 -550 175 -157 507 -332 748 -394 84 -22 116 -41 187 -109 89 -84 165 -173
374 -437 318 -400 444 -503 608 -494 134 7 249 64 330 163 64 79 125 226 143
345 3 22 7 43 9 47 4 6 11 121 20 309 12 286 100 460 298 593 46 31 180 84
245 97 26 5 58 12 72 15 14 3 77 7 140 10 138 6 176 10 258 29 156 37 338 171
436 321 22 33 47 71 56 85 24 37 85 184 113 276 52 164 71 343 52 468 -4 23
-9 55 -11 71 -14 98 -51 219 -99 321 -89 194 -256 365 -450 462 -66 32 -190
79 -233 87 -212 39 -404 118 -539 221 -123 94 -205 198 -278 349 -101 211
-240 375 -402 473 -41 24 -228 100 -228 91 0 -1 -25 2 -55 6 -61 8 -178 12
-225 7z m250 -254 c196 -54 328 -183 459 -446 26 -52 65 -122 88 -155 58 -86
218 -244 308 -302 106 -69 292 -154 373 -170 9 -2 21 -6 25 -9 5 -3 19 -7 33
-10 242 -47 384 -113 515 -241 183 -179 279 -515 223 -782 -59 -275 -175 -477
-333 -578 -81 -52 -164 -76 -280 -81 -370 -15 -591 -91 -774 -268 -94 -90
-163 -197 -212 -331 -44 -117 -56 -203 -64 -440 -7 -201 -26 -298 -77 -402
-30 -62 -81 -113 -133 -133 -112 -42 -185 25 -610 565 -206 261 -365 403 -495
441 -462 136 -806 374 -937 649 -49 101 -64 185 -59 324 3 64 7 127 10 141 3
14 7 41 10 60 8 63 56 203 97 284 51 103 112 188 196 273 83 85 125 119 277
223 425 292 640 541 704 810 77 329 213 534 391 591 45 14 192 7 265 -13z"/>
</g>
</svg>
