<?xml version="1.0" encoding="UTF-8"?>
<svg width="250px" height="32px" viewBox="0 0 250 32" version="1.1" xmlns="http://www.w3.org/2000/svg" xmlns:xlink="http://www.w3.org/1999/xlink">
    <!-- Generator: Sketch 54.1 (76490) - https://sketchapp.com -->
    <title>Hgw Logo</title>
    <desc>Created with Sketch.</desc>
    <g id="Page-1" stroke="none" stroke-width="1" fill="none" fill-rule="evenodd">
        <g id="Logo" transform="translate(-780.000000, -185.000000)" fill="#121212">
            <path d="M868.881358,195.81363 C868.919445,193.96216 868.317293,192.249261 866.796647,192.249261 C864.70564,192.249261 863.140926,195.738245 863.102839,199.251314 C863.102839,201.782814 863.863319,203.105025 865.231618,203.105025 C867.588919,203.105025 868.843586,198.98731 868.881358,195.81363 Z M868.957532,212.058958 C868.957532,210.018556 866.29648,208.960662 862.380445,208.960662 C859.605447,208.960662 857.780734,210.2078 857.780734,212.096494 C857.780734,214.060885 859.833339,215.383408 863.483079,215.383408 C865.763891,215.383408 868.957532,214.476598 868.957532,212.058958 Z M854.739126,212.096494 C854.739126,209.980707 857.32432,208.847428 860.51796,208.469564 L860.51796,208.394179 C858.578987,207.940931 857.590299,206.996271 857.590299,205.825144 C857.590299,204.578318 858.806879,203.444727 861.353985,202.424995 C860.175492,201.442799 859.453099,199.893808 859.453099,198.23127 C859.453099,194.529268 862.690807,191.644929 866.378319,191.644929 C868.051314,191.644929 869.413632,192.224237 870.402005,193.093511 C871.352605,191.733451 872.569185,190.713094 873.785766,190.713094 C874.926486,190.713094 875.762197,191.393437 875.762197,192.678111 C875.762197,193.584609 875.040118,194.227102 874.279637,194.227102 C873.481384,194.227102 872.835165,193.659994 872.949426,192.564564 C872.987198,192.338096 873.139231,192.035617 872.797078,192.035617 C872.340978,192.035617 871.542726,192.678111 870.896191,193.54676 C871.884879,194.529268 872.493326,195.775781 872.493326,197.097991 C872.493326,200.838155 869.261599,203.709357 865.421738,203.709357 C863.97758,203.709357 862.798773,203.331493 862.00052,202.878244 C860.973745,203.293957 860.51796,203.822591 860.51796,204.427235 C860.51796,204.994031 861.240039,205.409744 864.889465,206.014075 C869.337772,206.731641 871.276746,208.167086 871.276746,210.660737 C871.276746,213.834417 867.817126,216.025276 863.330731,216.025276 C858.578987,216.025276 854.739126,214.627368 854.739126,212.096494 Z M879.350179,194.982455 C879.426353,194.679976 879.5403,194.113493 879.5403,193.887025 C879.5403,193.131297 878.932167,192.866668 877.791446,192.866668 L876.574866,192.866668 L876.764986,192.262336 L883.20987,191.831921 C883.20987,193.343064 882.847887,194.793523 882.125178,196.795763 L881.593219,198.306905 L881.707166,198.344754 C883.798172,194.22704 885.688672,191.644866 888.007886,191.644866 C889.376499,191.644866 890.51722,192.513828 890.51722,194.02497 C890.51722,195.574274 889.528532,196.480772 888.425898,196.480772 C887.323579,196.480772 886.573171,195.813567 886.573171,194.831684 C886.573171,194.264576 886.839465,193.887025 886.991498,193.622395 C887.105759,193.471312 887.095372,193.118472 886.86748,193.118472 C885.080539,193.118472 881.821427,198.609384 880.452499,203.104962 L878.937518,208.097581 L875.288092,208.097581 L879.350179,194.982455 Z M900.003617,194.891711 C900.041704,193.040554 899.243451,192.360837 898.369025,192.360837 C896.31642,192.360837 893.730911,195.987766 893.160866,200.558417 C897.760892,199.538685 899.889671,198.10324 900.003617,194.891711 M889.092798,202.409887 C889.168972,197.309664 893.845172,191.642645 899.243451,191.642645 C901.715013,191.642645 903.273432,193.002705 903.273432,195.080643 C903.235345,198.594338 898.482971,200.180866 893.084692,201.238759 C893.046605,201.616623 893.008518,202.069559 893.008518,202.523121 C893.008518,205.772186 894.187011,207.24548 895.973952,207.24548 C897.608859,207.24548 899.737638,206.036816 901.562351,203.543478 L902.056537,203.921029 C900.041704,206.678997 897.570772,208.492305 894.529164,208.492305 C891.373925,208.492305 889.054711,206.225748 889.092798,202.409887 M914.431628,200.445464 C914.888042,198.896473 915.134506,197.385643 915.134506,196.138505 C915.134506,193.909797 914.146133,192.663284 912.929867,192.663284 C910.306587,192.663284 908.653423,196.818535 907.892942,200.294694 C907.588876,201.729826 907.436528,202.901266 907.436528,203.958847 C907.436528,206.074321 908.044661,207.321146 909.14761,207.321146 C911.086268,207.321146 913.291222,204.072394 914.431628,200.445464 M903.63507,202.825255 C903.63507,197.045316 908.063232,191.831859 912.473453,191.831859 C914.830754,191.831859 915.894986,193.570095 916.351086,195.64772 L916.503434,195.64772 C917.263599,194.854143 918.727588,193.153756 919.477996,191.831859 L920.428282,191.831859 L917.130767,203.127734 C916.864788,204.034545 916.598808,205.092438 916.598808,205.583536 C916.598808,206.263566 916.750842,206.641429 917.359289,206.641429 C918.119455,206.641429 919.221774,205.659234 920.704648,203.203119 L921.160748,203.543447 C919.716275,206.3768 917.891248,208.492587 915.686295,208.492587 C914.013615,208.492587 913.253135,207.585463 913.253135,205.999249 C913.253135,205.394604 913.367395,204.676725 913.443569,204.374559 L913.405482,204.374559 C912.226989,206.527883 910.439734,208.492587 908.044661,208.492587 C905.611815,208.492587 903.63507,206.716814 903.63507,202.825255 M922.634053,205.318937 C922.634053,204.638908 922.824173,203.73241 922.976206,203.052067 L925.866095,192.540697 L923.204413,192.540697 L923.299788,192.024576 C926.493429,191.647025 928.745912,190.662639 930.95118,185.373485 L931.657206,185.373485 L929.724527,191.835956 L934.438814,191.835956 L934.305353,192.540697 L929.515206,192.540697 L926.511686,203.20315 C926.435512,203.618863 926.283793,204.41244 926.283793,204.903537 C926.321565,205.923582 926.815752,206.678997 927.880299,206.678997 C929.362858,206.678997 930.731472,205.47002 932.366379,202.258804 L932.860565,202.561282 C931.112027,206.792544 928.906759,208.492618 926.246021,208.492618 C923.774459,208.492618 922.67214,207.245793 922.634053,205.318937 M802.277706,198.248849 C802.607898,196.493409 804.305759,195.532797 805.681612,195.532797 C807.359958,195.532797 808.787118,196.438669 809.11731,198.248849 L802.277706,198.248849 Z M805.543744,191.473263 C801.140762,191.473263 797.287682,194.957556 797.287682,199.977701 C797.287682,204.695056 800.81057,208.508727 805.901321,208.508727 C809.644547,208.508727 812.754774,206.560289 813.82782,203.076622 L808.901379,203.076622 C808.433633,203.8458 807.227125,204.264016 805.989141,204.264016 C803.566683,204.264016 802.360175,202.606482 802.277706,201.59113 L814.075543,201.59113 C814.625758,195.775843 811.075799,191.473263 805.543744,191.473263 L805.543744,191.473263 Z M816.48264,208.097644 L821.823946,208.097644 L821.823946,185.000094 L816.48264,185.000094 L816.48264,208.097644 Z M824.440616,208.097644 L829.781922,208.097644 L829.781922,185.000094 L824.440616,185.000094 L824.440616,208.097644 Z M780,185 L784.876078,185 L784.876078,193.398711 L784.941235,193.398711 C785.765929,191.935427 787.408705,191.455277 789.146227,191.455277 C790.707164,191.455277 792.562094,191.856601 793.592961,193.085597 C794.977313,194.695272 795.12431,196.129465 795.118329,199.026629 L795.118329,208.098801 L790.235955,208.098801 L790.235955,199.260605 C790.235955,198.470156 790.235955,195.70124 787.614564,195.70124 C784.876078,195.70124 784.876078,198.294987 784.876078,199.085123 L784.876078,208.098801 L780,208.098801 L780,185 Z M840.440926,204.250409 C838.065054,204.250409 836.138986,202.336691 836.138986,199.975981 C836.138986,197.614645 838.065054,195.70124 840.440926,195.70124 C842.816484,195.70124 844.741923,197.614645 844.741923,199.975981 C844.741923,202.336691 842.816484,204.250409 840.440926,204.250409 M840.440926,191.45778 C835.706809,191.45778 831.869152,195.271452 831.869152,199.975981 C831.869152,204.680197 835.706809,208.493556 840.440926,208.493556 C845.175044,208.493556 849.012386,204.680197 849.012386,199.975981 C849.012386,195.271452 845.175044,191.45778 840.440926,191.45778 M986.211458,191.831827 L991.395065,191.831827 L991.395065,194.734935 L991.458019,194.734935 C992.243996,192.674514 994.065561,191.728916 996.359593,191.728916 C996.767218,191.728916 997.207894,191.760196 997.615834,191.854036 L997.615834,196.623316 C996.925232,196.43626 996.296325,196.379018 995.573931,196.379018 C992.934912,196.379018 991.552449,198.044058 991.552449,200.074451 L991.552449,208.095923 L986.211458,208.095923 L986.211458,191.831827 Z M1020.2255,202.568195 C1020.39232,203.746204 1021.33568,204.596398 1023.00238,204.596398 C1024.30741,204.596398 1025.16862,204.020844 1025.16862,203.36271 C1025.16862,202.568195 1024.25138,202.293243 1022.55824,201.909749 C1019.78073,201.278516 1015.80961,200.592543 1015.80961,196.806711 C1015.80961,193.789431 1018.448,191.457498 1022.75183,191.457498 C1026.36191,191.457498 1029.61063,193.43315 1029.63865,197.135778 L1025.1406,197.135778 C1025.00148,196.28621 1024.3625,195.38065 1022.61333,195.38065 C1021.22457,195.38065 1020.5859,195.929304 1020.5859,196.506109 C1020.5859,198.617204 1030,196.916504 1030,203.143749 C1030,206.188243 1027.30621,208.492336 1022.83556,208.492336 C1018.50308,208.492336 1015.78285,206.353089 1015.42055,202.568195 L1020.2255,202.568195 Z M975.765678,204.249189 C973.389806,204.249189 971.463738,202.335471 971.463738,199.974761 C971.463738,197.613425 973.389806,195.70002 975.765678,195.70002 C978.141236,195.70002 980.066674,197.613425 980.066674,199.974761 C980.066674,202.335471 978.141236,204.249189 975.765678,204.249189 M975.765678,191.456247 C971.031246,191.456247 967.194218,195.270232 967.194218,199.974761 C967.194218,204.678978 971.031246,208.492336 975.765678,208.492336 C980.499796,208.492336 984.337138,204.678978 984.337138,199.974761 C984.337138,195.270232 980.499796,191.456247 975.765678,191.456247 M947.102075,191.831827 L949.546567,201.754506 L949.605114,201.754506 L952.285368,191.831827 L956.407575,191.831827 L959.117417,201.754506 L959.175964,201.754506 L961.62077,191.831827 L967.054304,191.831827 L962.047597,208.097488 L957.11486,208.097488 L954.375745,197.789125 L954.317198,197.789125 L951.578398,208.097488 L946.645346,208.097488 L941.638954,191.831827 L947.102075,191.831827 Z M999.756008,185 L1004.63146,185 L1004.63146,198.090416 L1009.28657,191.83189 L1015.05974,191.83189 L1008.85596,199.321914 L1014.85797,208.098801 L1009.31269,208.098801 L1004.63146,200.618787 L1004.63146,208.098801 L999.756008,208.098801 L999.756008,185 Z" id="Hgw-Logo"></path>
        </g>
    </g>
</svg>