<?xml version="1.0" encoding="UTF-8"?>
<svg width="250px" height="32px" viewBox="0 0 250 32" version="1.1" xmlns="http://www.w3.org/2000/svg" xmlns:xlink="http://www.w3.org/1999/xlink">
    <!-- Generator: Sketch 54.1 (76490) - https://sketchapp.com -->
    <title>Hgw Logo</title>
    <desc>Created with Sketch.</desc>
    <g id="Page-1" stroke="none" stroke-width="1" fill="none" fill-rule="evenodd">
        <g id="Logo" transform="translate(-180.000000, -185.000000)" fill="#FFFFFF">
            <path d="M268.881358,195.81363 C268.919445,193.96216 268.317293,192.249261 266.796647,192.249261 C264.70564,192.249261 263.140926,195.738245 263.102839,199.251314 C263.102839,201.782814 263.863319,203.105025 265.231618,203.105025 C267.588919,203.105025 268.843586,198.98731 268.881358,195.81363 Z M268.957532,212.058958 C268.957532,210.018556 266.29648,208.960662 262.380445,208.960662 C259.605447,208.960662 257.780734,210.2078 257.780734,212.096494 C257.780734,214.060885 259.833339,215.383408 263.483079,215.383408 C265.763891,215.383408 268.957532,214.476598 268.957532,212.058958 Z M254.739126,212.096494 C254.739126,209.980707 257.32432,208.847428 260.51796,208.469564 L260.51796,208.394179 C258.578987,207.940931 257.590299,206.996271 257.590299,205.825144 C257.590299,204.578318 258.806879,203.444727 261.353985,202.424995 C260.175492,201.442799 259.453099,199.893808 259.453099,198.23127 C259.453099,194.529268 262.690807,191.644929 266.378319,191.644929 C268.051314,191.644929 269.413632,192.224237 270.402005,193.093511 C271.352605,191.733451 272.569185,190.713094 273.785766,190.713094 C274.926486,190.713094 275.762197,191.393437 275.762197,192.678111 C275.762197,193.584609 275.040118,194.227102 274.279637,194.227102 C273.481384,194.227102 272.835165,193.659994 272.949426,192.564564 C272.987198,192.338096 273.139231,192.035617 272.797078,192.035617 C272.340978,192.035617 271.542726,192.678111 270.896191,193.54676 C271.884879,194.529268 272.493326,195.775781 272.493326,197.097991 C272.493326,200.838155 269.261599,203.709357 265.421738,203.709357 C263.97758,203.709357 262.798773,203.331493 262.00052,202.878244 C260.973745,203.293957 260.51796,203.822591 260.51796,204.427235 C260.51796,204.994031 261.240039,205.409744 264.889465,206.014075 C269.337772,206.731641 271.276746,208.167086 271.276746,210.660737 C271.276746,213.834417 267.817126,216.025276 263.330731,216.025276 C258.578987,216.025276 254.739126,214.627368 254.739126,212.096494 Z M279.350179,194.982455 C279.426353,194.679976 279.5403,194.113493 279.5403,193.887025 C279.5403,193.131297 278.932167,192.866668 277.791446,192.866668 L276.574866,192.866668 L276.764986,192.262336 L283.20987,191.831921 C283.20987,193.343064 282.847887,194.793523 282.125178,196.795763 L281.593219,198.306905 L281.707166,198.344754 C283.798172,194.22704 285.688672,191.644866 288.007886,191.644866 C289.376499,191.644866 290.51722,192.513828 290.51722,194.02497 C290.51722,195.574274 289.528532,196.480772 288.425898,196.480772 C287.323579,196.480772 286.573171,195.813567 286.573171,194.831684 C286.573171,194.264576 286.839465,193.887025 286.991498,193.622395 C287.105759,193.471312 287.095372,193.118472 286.86748,193.118472 C285.080539,193.118472 281.821427,198.609384 280.452499,203.104962 L278.937518,208.097581 L275.288092,208.097581 L279.350179,194.982455 Z M300.003617,194.891711 C300.041704,193.040554 299.243451,192.360837 298.369025,192.360837 C296.31642,192.360837 293.730911,195.987766 293.160866,200.558417 C297.760892,199.538685 299.889671,198.10324 300.003617,194.891711 M289.092798,202.409887 C289.168972,197.309664 293.845172,191.642645 299.243451,191.642645 C301.715013,191.642645 303.273432,193.002705 303.273432,195.080643 C303.235345,198.594338 298.482971,200.180866 293.084692,201.238759 C293.046605,201.616623 293.008518,202.069559 293.008518,202.523121 C293.008518,205.772186 294.187011,207.24548 295.973952,207.24548 C297.608859,207.24548 299.737638,206.036816 301.562351,203.543478 L302.056537,203.921029 C300.041704,206.678997 297.570772,208.492305 294.529164,208.492305 C291.373925,208.492305 289.054711,206.225748 289.092798,202.409887 M314.431628,200.445464 C314.888042,198.896473 315.134506,197.385643 315.134506,196.138505 C315.134506,193.909797 314.146133,192.663284 312.929867,192.663284 C310.306587,192.663284 308.653423,196.818535 307.892942,200.294694 C307.588876,201.729826 307.436528,202.901266 307.436528,203.958847 C307.436528,206.074321 308.044661,207.321146 309.14761,207.321146 C311.086268,207.321146 313.291222,204.072394 314.431628,200.445464 M303.63507,202.825255 C303.63507,197.045316 308.063232,191.831859 312.473453,191.831859 C314.830754,191.831859 315.894986,193.570095 316.351086,195.64772 L316.503434,195.64772 C317.263599,194.854143 318.727588,193.153756 319.477996,191.831859 L320.428282,191.831859 L317.130767,203.127734 C316.864788,204.034545 316.598808,205.092438 316.598808,205.583536 C316.598808,206.263566 316.750842,206.641429 317.359289,206.641429 C318.119455,206.641429 319.221774,205.659234 320.704648,203.203119 L321.160748,203.543447 C319.716275,206.3768 317.891248,208.492587 315.686295,208.492587 C314.013615,208.492587 313.253135,207.585463 313.253135,205.999249 C313.253135,205.394604 313.367395,204.676725 313.443569,204.374559 L313.405482,204.374559 C312.226989,206.527883 310.439734,208.492587 308.044661,208.492587 C305.611815,208.492587 303.63507,206.716814 303.63507,202.825255 M322.634053,205.318937 C322.634053,204.638908 322.824173,203.73241 322.976206,203.052067 L325.866095,192.540697 L323.204413,192.540697 L323.299788,192.024576 C326.493429,191.647025 328.745912,190.662639 330.95118,185.373485 L331.657206,185.373485 L329.724527,191.835956 L334.438814,191.835956 L334.305353,192.540697 L329.515206,192.540697 L326.511686,203.20315 C326.435512,203.618863 326.283793,204.41244 326.283793,204.903537 C326.321565,205.923582 326.815752,206.678997 327.880299,206.678997 C329.362858,206.678997 330.731472,205.47002 332.366379,202.258804 L332.860565,202.561282 C331.112027,206.792544 328.906759,208.492618 326.246021,208.492618 C323.774459,208.492618 322.67214,207.245793 322.634053,205.318937 M202.277706,198.248849 C202.607898,196.493409 204.305759,195.532797 205.681612,195.532797 C207.359958,195.532797 208.787118,196.438669 209.11731,198.248849 L202.277706,198.248849 Z M205.543744,191.473263 C201.140762,191.473263 197.287682,194.957556 197.287682,199.977701 C197.287682,204.695056 200.81057,208.508727 205.901321,208.508727 C209.644547,208.508727 212.754774,206.560289 213.82782,203.076622 L208.901379,203.076622 C208.433633,203.8458 207.227125,204.264016 205.989141,204.264016 C203.566683,204.264016 202.360175,202.606482 202.277706,201.59113 L214.075543,201.59113 C214.625758,195.775843 211.075799,191.473263 205.543744,191.473263 L205.543744,191.473263 Z M216.48264,208.097644 L221.823946,208.097644 L221.823946,185.000094 L216.48264,185.000094 L216.48264,208.097644 Z M224.440616,208.097644 L229.781922,208.097644 L229.781922,185.000094 L224.440616,185.000094 L224.440616,208.097644 Z M180,185 L184.876078,185 L184.876078,193.398711 L184.941235,193.398711 C185.765929,191.935427 187.408705,191.455277 189.146227,191.455277 C190.707164,191.455277 192.562094,191.856601 193.592961,193.085597 C194.977313,194.695272 195.12431,196.129465 195.118329,199.026629 L195.118329,208.098801 L190.235955,208.098801 L190.235955,199.260605 C190.235955,198.470156 190.235955,195.70124 187.614564,195.70124 C184.876078,195.70124 184.876078,198.294987 184.876078,199.085123 L184.876078,208.098801 L180,208.098801 L180,185 Z M240.440926,204.250409 C238.065054,204.250409 236.138986,202.336691 236.138986,199.975981 C236.138986,197.614645 238.065054,195.70124 240.440926,195.70124 C242.816484,195.70124 244.741923,197.614645 244.741923,199.975981 C244.741923,202.336691 242.816484,204.250409 240.440926,204.250409 M240.440926,191.45778 C235.706809,191.45778 231.869152,195.271452 231.869152,199.975981 C231.869152,204.680197 235.706809,208.493556 240.440926,208.493556 C245.175044,208.493556 249.012386,204.680197 249.012386,199.975981 C249.012386,195.271452 245.175044,191.45778 240.440926,191.45778 M386.211458,191.831827 L391.395065,191.831827 L391.395065,194.734935 L391.458019,194.734935 C392.243996,192.674514 394.065561,191.728916 396.359593,191.728916 C396.767218,191.728916 397.207894,191.760196 397.615834,191.854036 L397.615834,196.623316 C396.925232,196.43626 396.296325,196.379018 395.573931,196.379018 C392.934912,196.379018 391.552449,198.044058 391.552449,200.074451 L391.552449,208.095923 L386.211458,208.095923 L386.211458,191.831827 Z M420.225495,202.568195 C420.392322,203.746204 421.335683,204.596398 423.002382,204.596398 C424.307412,204.596398 425.168619,204.020844 425.168619,203.36271 C425.168619,202.568195 424.251384,202.293243 422.558244,201.909749 C419.780727,201.278516 415.809608,200.592543 415.809608,196.806711 C415.809608,193.789431 418.447998,191.457498 422.751827,191.457498 C426.361906,191.457498 429.610631,193.43315 429.638646,197.135778 L425.140605,197.135778 C425.001477,196.28621 424.362497,195.38065 422.613329,195.38065 C421.22457,195.38065 420.585905,195.929304 420.585905,196.506109 C420.585905,198.617204 430,196.916504 430,203.143749 C430,206.188243 427.306212,208.492336 422.835555,208.492336 C418.503082,208.492336 415.782853,206.353089 415.420555,202.568195 L420.225495,202.568195 Z M375.765678,204.249189 C373.389806,204.249189 371.463738,202.335471 371.463738,199.974761 C371.463738,197.613425 373.389806,195.70002 375.765678,195.70002 C378.141236,195.70002 380.066674,197.613425 380.066674,199.974761 C380.066674,202.335471 378.141236,204.249189 375.765678,204.249189 M375.765678,191.456247 C371.031246,191.456247 367.194218,195.270232 367.194218,199.974761 C367.194218,204.678978 371.031246,208.492336 375.765678,208.492336 C380.499796,208.492336 384.337138,204.678978 384.337138,199.974761 C384.337138,195.270232 380.499796,191.456247 375.765678,191.456247 M347.102075,191.831827 L349.546567,201.754506 L349.605114,201.754506 L352.285368,191.831827 L356.407575,191.831827 L359.117417,201.754506 L359.175964,201.754506 L361.62077,191.831827 L367.054304,191.831827 L362.047597,208.097488 L357.11486,208.097488 L354.375745,197.789125 L354.317198,197.789125 L351.578398,208.097488 L346.645346,208.097488 L341.638954,191.831827 L347.102075,191.831827 Z M399.756008,185 L404.631456,185 L404.631456,198.090416 L409.286567,191.83189 L415.059735,191.83189 L408.855964,199.321914 L414.857969,208.098801 L409.312693,208.098801 L404.631456,200.618787 L404.631456,208.098801 L399.756008,208.098801 L399.756008,185 Z" id="Hgw-Logo"></path>
        </g>
    </g>
</svg>