<svg viewBox="0 0 801 175" class="header__logo">
  <polygon fill-rule="nonzero" points="26.64 126.72 0.86 126.72 0.86 6.87 28.86 6.87 83 89.53 83 6.87 108.77 6.87 108.77 126.72 80.59 126.72 26.59 46.45"/>
  <path d="M215.72,126.72 L256.41,6.87 L287.71,6.87 L332.08,126.72 L303,126.72 L295.44,105 L250.89,105 L244.26,126.72 L215.72,126.72 Z M256.78,84.72 L288.78,84.72 L271.69,33 L256.78,84.72 Z" fill-rule="nonzero"/>
  <path d="M171.66,102.66 C145.597683,102.66 124.47,81.5323173 124.47,55.47 C124.47,29.4076827 145.597683,8.28 171.66,8.28 C197.722317,8.28 218.85,29.4076827 218.85,55.47 C218.822442,81.5208938 197.710894,102.632442 171.66,102.66 L171.66,102.66 Z M171.66,33.46 C159.509736,33.46 149.66,43.3097355 149.66,55.46 C149.66,67.6102645 159.509736,77.46 171.66,77.46 C183.810264,77.46 193.66,67.6102645 193.66,55.46 C193.66,43.3097355 183.810264,33.46 171.66,33.46 L171.66,33.46 Z" fill-rule="nonzero"/>
  <polygon fill-rule="nonzero" points="380 126.73 380 6.86 394.57 6.86 394.57 126.73"/>
  <path d="M504,52.9 C503.30282,52.7671256 502.598174,52.6769577 501.89,52.63 C501.08,52.57 500.2,52.54 499.24,52.54 C495.831513,52.4146106 492.44194,53.1000651 489.35,54.54 C487.438946,55.478637 485.576569,56.513291 483.77,57.64 C484.953796,59.7779573 485.902658,62.03779 486.6,64.38 C487.237538,66.9971898 487.526703,69.6871043 487.46,72.38 C487.46,82.8133333 484.703333,90.6666667 479.19,95.94 C473.676667,101.213333 465.01,104.48 453.19,105.74 C449.994179,106.022938 446.866188,106.826893 443.93,108.12 C441.29,109.34 439.93,111.78 439.93,115.46 C439.93,121.573333 443.286667,124.626667 450,124.62 L470.86,124.62 C479.526667,124.62 486.27,126.526667 491.09,130.34 C495.91,134.153333 498.31,139.34 498.29,145.9 C498.29,154.566667 494.29,161.583333 486.29,166.95 C478.29,172.316667 466.99,174.983333 452.39,174.950309 C439.383333,174.950309 429.626667,173.026667 423.12,169.18 C416.613333,165.333333 413.4,159.94 413.48,153 C413.432065,150.054912 414.097682,147.14198 415.42,144.51 C416.713447,141.988526 418.518543,139.764505 420.72,137.98 C423.102514,136.061816 425.812995,134.59138 428.72,133.64 C431.995839,132.564008 435.397698,131.918596 438.84,131.72 C435.798832,130.963475 433.066852,129.283063 431.02,126.91 C429.021223,124.660917 427.9305,121.748756 427.96,118.74 C427.903284,115.257657 429.230349,111.895039 431.65,109.39 C434.261808,106.70079 437.60759,104.84009 441.27,104.04 C438.228205,103.155309 435.323853,101.852894 432.64,100.17 C426.852193,96.6411696 422.380597,91.3124885 419.91,85 C418.512513,81.326781 417.833548,77.4193336 417.91,73.49 C417.831432,68.7151562 418.765264,63.9778328 420.65,59.59 C422.400041,55.5769086 424.964141,51.9708242 428.18,49 C431.454371,46.0216437 435.270098,43.6996176 439.42,42.16 C443.837256,40.5169234 448.517196,39.6934437 453.23,39.73 C458.598011,39.6678228 463.901657,40.9028244 468.69,43.33 C472.986792,45.4127464 476.718706,48.4998074 479.57,52.33 C480.42323,50.7528319 481.427968,49.2624699 482.57,47.88 C483.957066,46.1989858 485.541846,44.6914296 487.29,43.39 C489.183712,41.9597608 491.25416,40.7800086 493.45,39.88 C495.807202,38.9309741 498.329122,38.458539 500.87,38.49 C501.587755,38.481911 502.305432,38.5119533 503.02,38.58 C503.56,38.64 504.19,38.73 504.91,38.85 L504,52.9 Z M446.54,135.72 C440.426667,135.72 435.796667,136.83 432.65,139.05 C429.503333,141.27 427.953333,144.896667 428,149.93 C427.939928,152.173154 428.416482,154.398216 429.39,156.42 C430.383071,158.284056 431.940845,159.785821 433.84,160.71 C436.368974,161.914501 439.06652,162.727137 441.84,163.12 C445.916758,163.736692 450.037265,164.017635 454.16,163.96 C464.353333,163.96 471.756667,162.79 476.37,160.45 C480.983333,158.11 483.29,154.25 483.29,148.87 C483.29,144.31 481.656667,140.976667 478.39,138.87 C475.123333,136.763333 469.79,135.71 462.39,135.71 L446.54,135.72 Z M453.02,94.7202925 C459.493333,94.7202925 464.493333,92.9133333 468.02,89.3 C471.546667,85.6866667 473.3,80.21 473.280169,72.87 C473.280169,58.2033333 466.613333,50.87 453.28,50.87 C446.613333,50.87 441.383333,52.7333333 437.59,56.46 C433.796667,60.1866667 431.893333,65.6666667 431.88,72.9 C431.88,80.2333333 433.753333,85.71 437.5,89.33 C441.246667,92.95 446.43,94.7466667 453.05,94.7202925 L453.02,94.7202925 Z" fill-rule="nonzero"/>
  <path d="M581.1,70.62 C581.10644,68.0864217 580.694222,65.5691881 579.88,63.17 C579.116146,60.8742053 577.925243,58.7434736 576.37,56.89 C574.757292,55.0139167 572.749247,53.518128 570.49,52.51 C567.796645,51.3340529 564.877896,50.763958 561.94,50.84 C558.086583,50.7525869 554.282658,51.7208589 550.94,53.64 C547.826032,55.4688916 545.128424,57.9280748 543.02,60.86 C540.862586,63.8904033 539.251661,67.2746984 538.26,70.86 C537.222739,74.4589208 536.69098,78.1846001 536.68,81.93 L536.68,126.74 L522.68,126.74 L522.68,59.47 C522.68,57.67 522.59,55.0766667 522.41,51.69 C522.23,48.3033333 522.02,45.08 521.78,42.02 L535.45,42.02 C535.594688,43.0779948 535.684808,44.1427375 535.72,45.21 C535.72,46.62 535.83,48.11 535.9,49.67 C535.97,51.23 535.99,52.83 535.99,54.48 L535.99,58.75 L536.88,58.75 C537.934777,56.2563696 539.360931,53.9367622 541.11,51.87 C543.009069,49.584969 545.185891,47.5458779 547.59,45.8 C550.099158,43.9709666 552.852704,42.5033061 555.77,41.44 C558.940555,40.2974548 562.290078,39.7318629 565.66,39.77 C569.579183,39.7375291 573.478365,40.3316903 577.21,41.53 C580.675024,42.637968 583.853601,44.4952675 586.52,46.97 C589.300916,49.645748 591.437972,52.9180081 592.77,56.54 C594.381246,61.0852869 595.137313,65.889534 595,70.71 L595,126.71 L581.1,126.71 L581.1,70.62 Z" fill-rule="nonzero"/>
  <path d="M639.42,11.27 C639.534574,14.2844324 638.398214,17.2121872 636.28,19.36 C634.266254,21.2235251 631.642808,22.2899665 628.9,22.36 C626.271501,22.2800453 623.770656,21.2082546 621.9,19.36 C619.739901,17.2388723 618.592999,14.2933359 618.75,11.27 C618.75,7.85 619.75,5.27 621.9,3.54 C623.774326,1.72361659 626.290115,0.720895246 628.9,0.75 C631.616643,0.755888327 634.238887,1.74722454 636.28,3.54 C638.429573,5.51772595 639.581491,8.35349763 639.42,11.27 L639.42,11.27 Z M622.07,126.73 L622.07,42 L636.07,42 L636.07,126.71 L622.07,126.73 Z" fill-rule="nonzero"/>
  <path d="M670.84,42 L670.84,24.31 L684.84,22.51 L684.84,42 L710.2,42 L710.2,53.06 L684.86,53.06 L684.86,103.77 C684.846708,105.629626 684.997291,107.486807 685.31,109.32 C685.58047,110.922102 686.179714,112.450854 687.07,113.81 C687.986395,115.168638 689.259747,116.248219 690.75,116.93 C692.663443,117.757336 694.736533,118.150096 696.82,118.08 C699.019937,118.158632 701.218902,117.898938 703.34,117.31 C704.939522,116.769757 706.464807,116.030632 707.88,115.11 L710.22,125.67 C708.17439,126.67342 706.03814,127.480373 703.84,128.08 C701.085683,128.821267 698.242069,129.17798 695.39,129.14 C688.25,129.14 682.373333,127.283333 677.76,123.57 C673.146667,119.856667 670.84,113.713333 670.84,105.14 L670.84,53.08 L657.44,53.08 L657.44,42 L670.84,42 Z" fill-rule="nonzero"/>
  <path d="M739.72,86 C739.96,96.98 742.536667,105.046667 747.45,110.2 C752.267202,115.312577 759.038188,118.125028 766.06,117.93 C769.416674,118.030054 772.757455,117.430689 775.87,116.17 C778.239635,115.162936 780.449594,113.8154 782.43,112.17 C784.256991,110.590829 785.755446,108.667642 786.84,106.51 L799.42,112.89 C797.685622,116.131484 795.224785,118.927735 792.23,121.06 C789.110143,123.383113 785.662524,125.229932 782,126.54 C776.937759,128.302723 771.598633,129.136115 766.24,129 C760.004251,129.154787 753.808938,127.957345 748.08,125.49 C743.197745,123.315297 738.887704,120.035694 735.49,115.91 C732.113571,111.713807 729.608027,106.8863 728.12,101.71 C726.481252,96.1485594 725.662631,90.37779 725.69,84.58 C725.603695,78.1581999 726.618376,71.7690904 728.69,65.69 C730.451867,60.4673932 733.281934,55.66888 737,51.6 C740.563204,47.7951392 744.905308,44.8037606 749.73,42.83 C754.807363,40.7581268 760.246428,39.7179055 765.73,39.77 C771.047506,39.6566496 776.326083,40.7007637 781.2,42.83 C785.511277,44.7551655 789.28729,47.7038883 792.2,51.42 C795.175145,55.3024863 797.387516,59.7136562 798.72,64.42 C800.23189,69.7127426 800.972845,75.1958066 800.92,80.7 L800.92,83.35 C800.915136,84.2362159 800.855019,85.1212663 800.74,86 L739.72,86 Z M765,50.84 C757.993333,50.84 752.326667,53.1066667 748,57.64 C743.673333,62.1733333 741.156667,67.9366667 740.45,74.93 L785.95,74.93 L785.95,73.46 C785.936148,70.7480675 785.525118,68.0527895 784.73,65.46 C783.927548,62.8070524 782.665004,60.3158116 781,58.1 C779.30283,55.8552268 777.099766,54.0427525 774.57,52.81 C771.573463,51.4275832 768.298914,50.753512 765,50.84 Z" fill-rule="nonzero"/>
</svg>
